<svg id="Layer_1" data-name="Layer 1" xmlns="http://www.w3.org/2000/svg" viewBox="0 0 86.717 59.331"><defs><style>.cls-1{fill:#f58220;}.cls-1,.cls-2,.cls-4{fill-rule:evenodd;}.cls-2{fill:#00a651;}.cls-3,.cls-4{fill:#ed1c24;}.cls-5{fill:#231f20;}</style></defs><title>narf agri product</title><path class="cls-1" d="M54.927.334a17.941,17.941,0,0,1,11.7,4.321,15.6,15.6,0,0,0-9.3-3.087c-9.026,0-16.346,7.79-16.346,17.394,0,9.191,6.7,16.719,15.189,17.35q-.62.044-1.249.044a18.011,18.011,0,1,1,0-36.022" transform="translate(-11.423 -0.334)"/><path class="cls-2" d="M57.271,3.048a15.236,15.236,0,1,1-10.4,26.329A13.78,13.78,0,0,0,68.621,18.284a13.78,13.78,0,0,0-21.746-11.1,15.085,15.085,0,0,1,10.4-4.14" transform="translate(-11.423 -0.334)"/><path class="cls-3" d="M46.645,24.754c-.307-.135-.365-.231-.365-.653,0-1.055.077-2.207.1-2.514.019-.288.077-.5.23-.5.173,0,.192.173.192.327a4.049,4.049,0,0,0,.173.978,2.645,2.645,0,0,0,2.744,1.939,2.333,2.333,0,0,0,2.572-2.188c0-.941-.288-1.823-1.881-3.071l-.883-.691c-2.111-1.65-2.84-2.993-2.84-4.548,0-2.111,1.766-3.627,4.433-3.627a9.319,9.319,0,0,1,2.553.326c.172.039.268.1.268.231,0,.249-.077.806-.077,2.3,0,.422-.057.575-.211.575-.134,0-.192-.115-.192-.345a2.324,2.324,0,0,0-.5-1.267,2.429,2.429,0,0,0-2.091-.94,2.019,2.019,0,0,0-2.284,1.977c0,.882.441,1.554,2.034,2.763l.538.4C53.477,17.979,54.3,19.3,54.3,21.127a3.867,3.867,0,0,1-1.8,3.339,5.548,5.548,0,0,1-3.052.787A6.654,6.654,0,0,1,46.645,24.754Z" transform="translate(-11.423 -0.334)"/><path class="cls-4" d="M54.825,18.977l1.6.036a.4.4,0,0,1,.346.135c.249.288,1.132,1.592,1.9,2.648A9.265,9.265,0,0,0,61.3,24.617a3.909,3.909,0,0,0,2.054.367H65.18c.23,0,.364-.038.364-.2,0-.1-.077-.153-.23-.153a2.963,2.963,0,0,1-.537-.058,3.82,3.82,0,0,1-2.15-1.3c-1.132-1.189-2.456-2.9-4.163-5.046C60.4,16.653,61,15.348,61,13.928a3.324,3.324,0,0,0-1.3-2.628,6.137,6.137,0,0,0-3.531-.826c-.3,0-.814.015-1.336.03v.937a4.762,4.762,0,0,1,.971-.065c1.132,0,2.936.787,2.936,3.512A3.38,3.38,0,0,1,57.6,17.766a1.916,1.916,0,0,1-1.362.326,5.192,5.192,0,0,1-1.413-.177Z" transform="translate(-11.423 -0.334)"/><path class="cls-1" d="M40.763,31.69c1.57.164,2.272,2.546,1.1,3.9a3.46,3.46,0,0,1-4.507.293,8.828,8.828,0,0,1-2.7-3.5c-.636-1.209-1.538-2.7-3.369-2.892l-.564-.059c-2.074-.215-4.938,2.176-5.146,4.177l-.044.424c-.248,2.382,3.209,2.774,3.431.642l.015-.141a1.239,1.239,0,0,0-.935-1.311c-.357-.037-.5.091-.546.443.293.006.165-.054.431-.027a.592.592,0,0,1,.436.617l-.015.141c-.149,1.44-2.8.033-1.257-1.47,1.09-1.066,2.458.218,2.309,1.651l-.014.141a2.324,2.324,0,0,1-2.347,1.969,2.55,2.55,0,0,1-2.207-2.8l.007-.07a4.97,4.97,0,0,1,.749-1.945c.217-.338.965-1.3,1.038-1.51a14.159,14.159,0,0,0-3.012,1.627,3.835,3.835,0,0,0-2.148,2.691l-.022.212c-.073.7.4,1.112,1.09,1.184.641.066.79-.518.739-.923-.59.552-.191.185-.829.414-.187-.2-.46-.382-.421-.758l.03-.282a.72.72,0,0,1,.78-.633l.07.007a1.481,1.481,0,0,1,1.132,1.474,1.5,1.5,0,0,1-1.567,1.336l-.282-.029a2,2,0,0,1-1.412-2.217l.4-1.451c-.771.083-1.405.317-2.334.422a11.592,11.592,0,0,1-2.6.057l-.566-.058c-2.5-.26-4.481-1.524-4.223-4.009a2.155,2.155,0,0,1,2.22-2.124l.565.058a2.012,2.012,0,0,1,1.674,2.46c-.572,1.522-2.448.866-2.347-.1l.029-.282c.033-.314.329-.68.638-.648.375.039.617.249.577.631a2.411,2.411,0,0,1-.2.551c.26.005.583-.112.609-.365l.044-.424c.064-.611-.847-1.159-1.514-1.228-.8-.083-1.433.739-1.518,1.555-.21,2.022,2.13,3.148,4.219,3.365.895.094,3.552-.065,3.9-.451a1.445,1.445,0,0,1-.808-2.27c.741-1.011,2.271-.812,2.188-.013l-.029.282c-.031.292-.3.611-.561.585l-.282-.03c-.357-.037-.249-.525-.585-.56-.417-.044-.739,1.208.5,1.337l.424.044c2.665.277,6.247-3.919,9.721-3.558l.989.1a6.042,6.042,0,0,1,4.3,3.173c.627,1.19,1.592,3.864,3.235,4.035l.353.036a1.877,1.877,0,0,0,1.934-1.441l.022-.211a1.559,1.559,0,0,0-1.124-1.545l-.071-.007a.806.806,0,0,0-.991.611l.062.215c.386-.06.33-.389.807-.339a.576.576,0,0,1,.436.616l-.007.071a.911.911,0,0,1-.929.689l-.211-.022a1.183,1.183,0,0,1-.872-1.233l.03-.283c.069-.663,1.032-1.106,1.749-1.031Zm-3.995,2.726a27.087,27.087,0,0,1-1.3-2.758,6.293,6.293,0,0,0-.879-1.162,12.459,12.459,0,0,0-1.17-.926l-.089.051a6.2,6.2,0,0,1,1.745,2.42c.246.467.445.844.717,1.293a4.184,4.184,0,0,0,.437.615,4.857,4.857,0,0,0,.463.53Z" transform="translate(-11.423 -0.334)"/><path class="cls-3" d="M17.527,38.617a.285.285,0,0,0,.061-.007.225.225,0,0,0,.06-.022c.008-.01.015-.015.02-.015h.02a.722.722,0,0,1,.16-.066.6.6,0,0,1,.16-.023.891.891,0,0,1,.682.406,3.733,3.733,0,0,1,.668,1.395,2,2,0,0,1,.053.428,1.089,1.089,0,0,1-.213.679.65.65,0,0,1-.535.281.719.719,0,0,1-.314-.074,1.517,1.517,0,0,1-.3-.192,2.844,2.844,0,0,1-.281-.258c-.089-.094-.183-.19-.281-.288a5.4,5.4,0,0,0-.668-.546,1.407,1.407,0,0,0-.828-.251.9.9,0,0,0-.595.184.645.645,0,0,0-.22.524.682.682,0,0,0,.347.605,4.116,4.116,0,0,0,.855.4q.228.088.481.177c.17.059.343.123.521.192a5.337,5.337,0,0,1,1.5.952,2.416,2.416,0,0,1,.688,1.9A3.138,3.138,0,0,1,18.423,47.5a4.408,4.408,0,0,1-2.953.974c-.116,0-.234,0-.354-.007s-.239-.012-.354-.022a8.758,8.758,0,0,1-1.6-.31,2.13,2.13,0,0,1-.982-.5,1.863,1.863,0,0,1-.354-.627,4.66,4.66,0,0,1-.247-.908,3.15,3.15,0,0,1-.074-.428c-.013-.138-.02-.271-.02-.4a1.052,1.052,0,0,1,.14-.59.45.45,0,0,1,.395-.207.619.619,0,0,1,.474.236,2.929,2.929,0,0,1,.367.532q.081.147.147.288a2.21,2.21,0,0,0,.134.243,1.79,1.79,0,0,0,.741.657,2.438,2.438,0,0,0,1.063.273h.067a1.406,1.406,0,0,0,.768-.192.565.565,0,0,0,.3-.487.628.628,0,0,0-.28-.539,3.51,3.51,0,0,0-.722-.376q-.24-.1-.521-.214c-.187-.074-.379-.155-.574-.244a5.928,5.928,0,0,1-.642-.346,3.342,3.342,0,0,1-.588-.465,4.14,4.14,0,0,1-.574-.731,2.979,2.979,0,0,1-.348-.8,2.7,2.7,0,0,1-.08-.355,2.244,2.244,0,0,1-.026-.339,3.121,3.121,0,0,1,1.062-2.392,3.723,3.723,0,0,1,2.612-.974,2.9,2.9,0,0,1,.635.067q.3.066.554.14c.169.049.323.1.461.14a1.176,1.176,0,0,0,.341.066h.033a.042.042,0,0,0,.034-.014.1.1,0,0,0,.033-.008.13.13,0,0,1,.033-.007Z" transform="translate(-11.423 -0.334)"/><path class="cls-3" d="M23.072,45.924c0,.049.007.1.007.162v.163a2.539,2.539,0,0,0,.04.457.855.855,0,0,0,.187.4.281.281,0,0,1,.027.036.16.16,0,0,0,.026.037h.014c.044.069.089.141.133.214a.459.459,0,0,1,.067.244.644.644,0,0,1-.488.6,4.164,4.164,0,0,1-1.449.192,5.122,5.122,0,0,1-1.677-.206q-.555-.207-.555-.62a.477.477,0,0,1,.114-.333,3.16,3.16,0,0,1,.247-.243h.013a.1.1,0,0,1,.027-.022.131.131,0,0,0,.027-.022,1.209,1.209,0,0,0,.3-.709,10.536,10.536,0,0,0,.114-1.638q.014-.635.02-.908c.005-.182.007-.342.007-.48V43.09a18.843,18.843,0,0,0-.067-2.082.749.749,0,0,0-.374-.59.9.9,0,0,1-.308-.251.5.5,0,0,1-.093-.3q0-.414.541-.7a5.782,5.782,0,0,1,1.183-.465c.338-.079.656-.14.955-.185a5.019,5.019,0,0,1,.648-.066.466.466,0,0,1,.307.074.373.373,0,0,1,.081.28l-.081,3.011a.861.861,0,0,0,.081.421.248.248,0,0,0,.227.14c.071,0,.153-.066.247-.2a4.421,4.421,0,0,1,.354-.435,2.72,2.72,0,0,1,.554-.436,1.557,1.557,0,0,1,.822-.2,2.362,2.362,0,0,1,.942.192,1.854,1.854,0,0,1,.715.516,1.746,1.746,0,0,1,.4.738,5.562,5.562,0,0,1,.12,1.211l.053,2.6a1.758,1.758,0,0,0,.074.45.692.692,0,0,0,.167.288.209.209,0,0,1,.047.036l.033.037a1.058,1.058,0,0,1,.214.214.473.473,0,0,1,.094.288q0,.384-.522.569a5.034,5.034,0,0,1-1.576.184,4.607,4.607,0,0,1-1.443-.17q-.482-.169-.481-.524a.5.5,0,0,1,.053-.236,1.385,1.385,0,0,1,.134-.206v-.015a.21.21,0,0,1,.033-.052.212.212,0,0,0,.034-.052,1.544,1.544,0,0,0,.213-.656,9.352,9.352,0,0,0,.067-1.292,3.991,3.991,0,0,0-.22-1.572.752.752,0,0,0-.729-.465.587.587,0,0,0-.541.273,1.873,1.873,0,0,0-.167.923v1.372C23.065,45.82,23.067,45.875,23.072,45.924Z" transform="translate(-11.423 -0.334)"/><path class="cls-3" d="M36.019,42.576l-.014.5v3.18a.385.385,0,0,0,.1.289,1.26,1.26,0,0,0,.22.169.038.038,0,0,0,.027.015,1.731,1.731,0,0,1,.24.193.413.413,0,0,1,.107.31q0,.489-.888.843a5.575,5.575,0,0,1-2.078.355.6.6,0,0,1-.454-.125.5.5,0,0,1-.121-.288.065.065,0,0,1-.013-.045v-.059A.9.9,0,0,0,33.1,47.7c-.022-.059-.082-.088-.18-.088a.587.587,0,0,0-.267.132,4.908,4.908,0,0,1-.455.281,3.306,3.306,0,0,1-.574.288,1.868,1.868,0,0,1-.682.125,1.745,1.745,0,0,1-1.763-.88,5.113,5.113,0,0,1-.415-2.182v-.258a2.577,2.577,0,0,1,.014-.26v-.5a5.329,5.329,0,0,0-.087-1.191.805.805,0,0,0-.394-.5q-.12-.073-.2-.126a.6.6,0,0,1-.12-.1.317.317,0,0,1-.053-.118.675.675,0,0,1-.014-.148.59.59,0,0,1,.187-.444,1.335,1.335,0,0,1,.562-.281q.281-.059.6-.118c.214-.039.432-.069.655-.088s.447-.052.674-.067.435-.022.622-.022a.421.421,0,0,1,.287.089.334.334,0,0,1,.1.265v3.908a1.813,1.813,0,0,0,.2.955.639.639,0,0,0,.574.318.584.584,0,0,0,.595-.407,5.345,5.345,0,0,0,.153-1.591,13.142,13.142,0,0,0-.053-1.532.631.631,0,0,0-.321-.481l-.02-.022a.025.025,0,0,0-.02-.008.884.884,0,0,1-.274-.244.489.489,0,0,1-.1-.289.542.542,0,0,1,.167-.392.961.961,0,0,1,.474-.244,5.477,5.477,0,0,1,.542-.126q.286-.051.581-.1c.222-.029.445-.054.668-.073s.427-.03.614-.03a.6.6,0,0,1,.488.2.892.892,0,0,1,.167.584c0,.059,0,.116-.007.17s-.006.106-.006.156v.31Z" transform="translate(-11.423 -0.334)"/><path class="cls-3" d="M44.135,39.016V45.6a5.281,5.281,0,0,0,.027.664.507.507,0,0,0,.147.3c.018.011.035.023.054.037a.64.64,0,0,1,.053.052c.062.049.118.1.167.14a.78.78,0,0,1,.114.126.582.582,0,0,1,.093.177.712.712,0,0,1,.027.207.728.728,0,0,1-.495.641,3.942,3.942,0,0,1-1.082.347,5.727,5.727,0,0,1-.768.119q-.368.029-.581.029c-.179,0-.286-.042-.321-.125a.9.9,0,0,1-.067-.273V47.99a.961.961,0,0,0-.047-.214q-.033-.1-.18-.1a.489.489,0,0,0-.227.126,4.475,4.475,0,0,1-.4.273,2.681,2.681,0,0,1-.548.28,1.839,1.839,0,0,1-.668.118,2.631,2.631,0,0,1-2.038-1.107,3.773,3.773,0,0,1-.915-2.465,4.056,4.056,0,0,1,.929-2.671,2.777,2.777,0,0,1,2.2-1.122,2.029,2.029,0,0,1,.527.066c.165.044.315.091.448.141l.327.154a.553.553,0,0,0,.208.067c.071,0,.122-.054.153-.163a1.735,1.735,0,0,0,.047-.457.5.5,0,0,0-.147-.413,1.452,1.452,0,0,0-.307-.192.025.025,0,0,1-.02-.008.027.027,0,0,0-.02-.007,1.491,1.491,0,0,1-.294-.177.4.4,0,0,1-.134-.34.619.619,0,0,1,.221-.487,1.96,1.96,0,0,1,.714-.339.942.942,0,0,0,.127-.037c.04-.015.078-.027.114-.037q.654-.177,1.222-.31a4.138,4.138,0,0,1,.782-.133.556.556,0,0,1,.414.148.6.6,0,0,1,.147.442Zm-4.269,4.258a4.176,4.176,0,0,0-.274,1.646,2.971,2.971,0,0,0,.248,1.321.743.743,0,0,0,.661.495.672.672,0,0,0,.635-.526,5.552,5.552,0,0,0,.193-1.741,4.122,4.122,0,0,0-.173-1.4.589.589,0,0,0-.561-.437Q40.141,42.647,39.866,43.274Z" transform="translate(-11.423 -0.334)"/><path class="cls-3" d="M52.252,39.016V45.6a5.555,5.555,0,0,0,.026.664.507.507,0,0,0,.147.3.47.47,0,0,1,.054.037.52.52,0,0,1,.054.052c.062.049.118.1.166.14a.735.735,0,0,1,.114.126.565.565,0,0,1,.094.177.714.714,0,0,1,.026.207.729.729,0,0,1-.494.641,3.953,3.953,0,0,1-1.082.347,5.765,5.765,0,0,1-.769.119c-.245.019-.438.029-.581.029-.178,0-.285-.042-.321-.125a.9.9,0,0,1-.066-.273V47.99a1.021,1.021,0,0,0-.047-.214q-.033-.1-.18-.1a.49.49,0,0,0-.228.126,4.3,4.3,0,0,1-.4.273,2.707,2.707,0,0,1-.548.28,1.843,1.843,0,0,1-.668.118,2.63,2.63,0,0,1-2.038-1.107,3.773,3.773,0,0,1-.915-2.465,4.055,4.055,0,0,1,.928-2.671,2.778,2.778,0,0,1,2.2-1.122,2.042,2.042,0,0,1,.528.066c.165.044.314.091.448.141l.327.154a.555.555,0,0,0,.207.067c.071,0,.123-.054.154-.163a1.735,1.735,0,0,0,.047-.457.5.5,0,0,0-.147-.413,1.458,1.458,0,0,0-.308-.192.026.026,0,0,1-.02-.008.024.024,0,0,0-.02-.007,1.491,1.491,0,0,1-.294-.177.4.4,0,0,1-.133-.34.618.618,0,0,1,.22-.487,1.958,1.958,0,0,1,.715-.339.942.942,0,0,0,.127-.037c.04-.015.078-.027.113-.037q.655-.177,1.223-.31a4.126,4.126,0,0,1,.782-.133.556.556,0,0,1,.414.148.6.6,0,0,1,.147.442Zm-4.269,4.258a4.158,4.158,0,0,0-.274,1.646,2.972,2.972,0,0,0,.247,1.321.744.744,0,0,0,.662.495.67.67,0,0,0,.634-.526,5.545,5.545,0,0,0,.194-1.741,4.092,4.092,0,0,0-.174-1.4.589.589,0,0,0-.561-.437Q48.257,42.647,47.983,43.274Z" transform="translate(-11.423 -0.334)"/><path class="cls-3" d="M56.3,45.924c0,.049.007.1.007.162v.163a2.539,2.539,0,0,0,.04.457.845.845,0,0,0,.187.4.281.281,0,0,1,.027.036.16.16,0,0,0,.026.037H56.6c.044.069.089.141.133.214a.459.459,0,0,1,.067.244.644.644,0,0,1-.488.6,4.164,4.164,0,0,1-1.449.192,5.122,5.122,0,0,1-1.677-.206q-.555-.207-.555-.62a.477.477,0,0,1,.114-.333,3.345,3.345,0,0,1,.247-.243h.013a.1.1,0,0,1,.027-.022.131.131,0,0,0,.027-.022,1.208,1.208,0,0,0,.3-.709,10.691,10.691,0,0,0,.113-1.638q.014-.635.02-.908c.005-.182.007-.342.007-.48V43.09a18.843,18.843,0,0,0-.067-2.082.749.749,0,0,0-.374-.59.889.889,0,0,1-.307-.251.5.5,0,0,1-.094-.3q0-.414.541-.7a5.782,5.782,0,0,1,1.183-.465c.338-.079.657-.14.955-.185a5.036,5.036,0,0,1,.648-.066.466.466,0,0,1,.307.074.373.373,0,0,1,.08.28l-.08,3.011a.875.875,0,0,0,.08.421.249.249,0,0,0,.228.14c.071,0,.153-.066.247-.2a4.571,4.571,0,0,1,.354-.435,2.72,2.72,0,0,1,.554-.436,1.557,1.557,0,0,1,.822-.2,2.362,2.362,0,0,1,.942.192,1.847,1.847,0,0,1,.715.516,1.746,1.746,0,0,1,.4.738,5.562,5.562,0,0,1,.12,1.211l.053,2.6a1.758,1.758,0,0,0,.074.45.692.692,0,0,0,.167.288.209.209,0,0,1,.047.036l.033.037a1.085,1.085,0,0,1,.214.214.473.473,0,0,1,.094.288q0,.384-.522.569a5.034,5.034,0,0,1-1.576.184,4.607,4.607,0,0,1-1.443-.17q-.481-.169-.481-.524a.516.516,0,0,1,.053-.236A1.385,1.385,0,0,1,57.6,47.3v-.015a.184.184,0,0,1,.033-.052.212.212,0,0,0,.034-.052,1.544,1.544,0,0,0,.213-.656,9.352,9.352,0,0,0,.067-1.292,3.991,3.991,0,0,0-.22-1.572A.751.751,0,0,0,57,43.193a.585.585,0,0,0-.541.273,1.86,1.86,0,0,0-.168.923v1.372C56.293,45.82,56.3,45.875,56.3,45.924Z" transform="translate(-11.423 -0.334)"/><path class="cls-3" d="M65.84,44.876l.013-2.185V41.85a7.9,7.9,0,0,0-.087-1.484.815.815,0,0,0-.394-.539c-.071-.039-.134-.075-.187-.11a1.4,1.4,0,0,1-.134-.1.49.49,0,0,1-.127-.177.591.591,0,0,1-.033-.207.7.7,0,0,1,.374-.642,2.256,2.256,0,0,1,1.1-.214c.133,0,.265.005.394.015l.381.029.38.03c.13.01.261.015.395.015.213,0,.425-.008.634-.023s.417-.031.622-.051.412-.022.621-.037.416-.022.621-.022a3.427,3.427,0,0,1,2.258.708,2.317,2.317,0,0,1,.856,1.875,2.425,2.425,0,0,1-.2,1.07,2.333,2.333,0,0,1-.441.642,2.863,2.863,0,0,1-.387.317.848.848,0,0,0-.241.214.106.106,0,0,1-.007.045.079.079,0,0,0-.006.029.3.3,0,0,0,.033.148.367.367,0,0,0,.127.118.366.366,0,0,1,.074.037.3.3,0,0,0,.086.037,1.833,1.833,0,0,1,1.09,1,6.215,6.215,0,0,1,.367,1.528,1.8,1.8,0,0,0,.147.6.543.543,0,0,0,.347.243,1.039,1.039,0,0,1,.334.177.446.446,0,0,1,.147.369.876.876,0,0,1-.548.79,3.172,3.172,0,0,1-1.469.288,3.042,3.042,0,0,1-1.129-.185,1.618,1.618,0,0,1-.729-.553,2.584,2.584,0,0,1-.36-.709c-.09-.265-.17-.536-.241-.811-.018-.069-.033-.136-.047-.2s-.029-.13-.046-.2a8.017,8.017,0,0,0-.4-1.218.791.791,0,0,0-.775-.524c-.169,0-.276.054-.321.163a2.675,2.675,0,0,0-.067.782,6.488,6.488,0,0,0,.087,1.321.774.774,0,0,0,.368.509.931.931,0,0,1,.287.273.628.628,0,0,1,.1.347.693.693,0,0,1-.534.679,6.116,6.116,0,0,1-1.844.192A5.117,5.117,0,0,1,65.5,48.19a.8.8,0,0,1-.595-.746.51.51,0,0,1,.067-.288.574.574,0,0,1,.16-.155,1.17,1.17,0,0,1,.114-.081.865.865,0,0,0,.127-.1,1.464,1.464,0,0,0,.321-.568,4.446,4.446,0,0,0,.147-1.365Zm3.019-4.4-.067,1.683a.9.9,0,0,0,.061.376q.06.126.3.126a.982.982,0,0,0,.822-.332,1.655,1.655,0,0,0,.26-1.026,2.005,2.005,0,0,0-.22-1.056.745.745,0,0,0-.675-.347.43.43,0,0,0-.354.126.894.894,0,0,0-.127.465Z" transform="translate(-11.423 -0.334)"/><path class="cls-3" d="M78.659,41.1a3.906,3.906,0,0,1,2.539.974A3.259,3.259,0,0,1,82.334,44.7a3.466,3.466,0,0,1-1.216,2.693,4.33,4.33,0,0,1-2.993,1.085,3.319,3.319,0,0,1-2.425-.952,3.2,3.2,0,0,1-.969-2.384,3.916,3.916,0,0,1,1.089-2.856,3.99,3.99,0,0,1,2.839-1.173ZM77.8,43.023a1.05,1.05,0,0,0-.16.613,4.874,4.874,0,0,0,.053.635c.036.256.085.521.147.8q.054.281.134.553t.16.509a1.1,1.1,0,0,0,.268.443.546.546,0,0,0,.387.148.5.5,0,0,0,.448-.215,1.3,1.3,0,0,0,.14-.689,5.424,5.424,0,0,0-.047-.667,6.906,6.906,0,0,0-.14-.755q-.068-.3-.147-.586t-.174-.54a.976.976,0,0,0-.254-.363.566.566,0,0,0-.387-.141A.584.584,0,0,0,77.8,43.023Z" transform="translate(-11.423 -0.334)"/><path class="cls-3" d="M86.135,41.1a3.91,3.91,0,0,1,2.539.974A3.259,3.259,0,0,1,89.809,44.7a3.462,3.462,0,0,1-1.216,2.693A4.328,4.328,0,0,1,85.6,48.477a3.321,3.321,0,0,1-2.425-.952,3.2,3.2,0,0,1-.968-2.384A3.916,3.916,0,0,1,83.3,42.285a3.99,3.99,0,0,1,2.839-1.173Zm-.855,1.926a1.05,1.05,0,0,0-.161.613,4.729,4.729,0,0,0,.054.635c.035.256.084.521.147.8.035.187.08.371.133.553s.107.352.161.509a1.094,1.094,0,0,0,.267.443.549.549,0,0,0,.387.148.5.5,0,0,0,.448-.215,1.293,1.293,0,0,0,.14-.689,5.408,5.408,0,0,0-.046-.667,7.161,7.161,0,0,0-.141-.755q-.066-.3-.147-.586t-.173-.54a.988.988,0,0,0-.254-.363.567.567,0,0,0-.388-.141A.582.582,0,0,0,85.28,43.023Z" transform="translate(-11.423 -0.334)"/><path class="cls-3" d="M90.584,45.341c-.005-.113-.007-.224-.007-.332q0-.65-.033-1.026t-.234-.406a.588.588,0,0,0-.074-.022c-.022-.005-.046-.013-.073-.022a1.209,1.209,0,0,1-.388-.185.483.483,0,0,1-.173-.421.811.811,0,0,1,.1-.42,1.16,1.16,0,0,1,.327-.333,1.607,1.607,0,0,1,.161-.1l.187-.1a8.585,8.585,0,0,1,1.276-.554,5.509,5.509,0,0,1,1.089-.243c.071,0,.14,0,.207-.008s.135-.007.207-.007c.151,0,.245.04.28.118a.79.79,0,0,1,.067.251V41.6a.655.655,0,0,0,.027.192.123.123,0,0,0,.133.088.712.712,0,0,0,.221-.118c.12-.078.274-.167.461-.265a3.7,3.7,0,0,1,.461-.214,2.6,2.6,0,0,1,.514-.141c.045-.009.091-.017.141-.022a1.353,1.353,0,0,1,.14-.007,2.186,2.186,0,0,1,1.8,1,3.906,3.906,0,0,1,.741,2.4,4.488,4.488,0,0,1-.888,2.812,2.61,2.61,0,0,1-2.118,1.158,1.758,1.758,0,0,1-.421-.051c-.138-.035-.269-.072-.394-.111S94.1,48.239,94,48.2a.771.771,0,0,0-.24-.051.151.151,0,0,0-.14.11.782.782,0,0,0-.047.3,1.267,1.267,0,0,0,.08.494.8.8,0,0,0,.254.318.083.083,0,0,0,.033.022.08.08,0,0,1,.034.022c0,.01,0,.015.013.015a1.519,1.519,0,0,1,.261.229.477.477,0,0,1,.113.332.715.715,0,0,1-.447.657,2.875,2.875,0,0,1-1.276.228,4.846,4.846,0,0,1-2.091-.42q-.89-.422-.889-1a.53.53,0,0,1,.073-.332.634.634,0,0,1,.194-.14.508.508,0,0,0,.087-.044c.031-.02.065-.04.1-.059a1.073,1.073,0,0,0,.3-.443,3.579,3.579,0,0,0,.154-1.2l.026-1.579C90.59,45.565,90.588,45.454,90.584,45.341Zm2.986-1.484-.107,1.993a.94.94,0,0,0,.14.568.6.6,0,0,0,.5.185.716.716,0,0,0,.682-.414A2.928,2.928,0,0,0,95,44.905a2.6,2.6,0,0,0-.254-1.254.766.766,0,0,0-.682-.458.415.415,0,0,0-.361.17.951.951,0,0,0-.133.509Z" transform="translate(-11.423 -0.334)"/><path class="cls-2" d="M67.9,31.69c-1.57.164-2.272,2.546-1.095,3.9a3.458,3.458,0,0,0,4.506.293,8.828,8.828,0,0,0,2.7-3.5c.636-1.209,1.538-2.7,3.369-2.892l.565-.059c2.073-.215,4.937,2.176,5.145,4.177l.044.424c.248,2.382-3.209,2.774-3.431.642l-.014-.141a1.238,1.238,0,0,1,.934-1.311c.357-.037.5.091.546.443-.293.006-.165-.054-.431-.027a.592.592,0,0,0-.436.617l.015.141c.15,1.44,2.8.033,1.258-1.47-1.091-1.066-2.459.218-2.31,1.651l.015.141a2.322,2.322,0,0,0,2.346,1.969,2.549,2.549,0,0,0,2.207-2.8l-.007-.07a4.955,4.955,0,0,0-.749-1.945c-.217-.338-.965-1.3-1.038-1.51a14.159,14.159,0,0,1,3.012,1.627A3.835,3.835,0,0,1,87.2,34.681l.022.212c.073.7-.4,1.112-1.09,1.184-.641.066-.79-.518-.739-.923.591.552.191.185.829.414.187-.2.46-.382.421-.758l-.03-.282a.719.719,0,0,0-.779-.633l-.071.007a1.481,1.481,0,0,0-1.132,1.474A1.5,1.5,0,0,0,86.2,36.712l.282-.029A2,2,0,0,0,87.9,34.466l-.4-1.451c.771.083,1.405.317,2.334.422a11.6,11.6,0,0,0,2.605.057L93,33.436c2.5-.26,4.481-1.524,4.223-4.009A2.155,2.155,0,0,0,95,27.3l-.565.058a2.012,2.012,0,0,0-1.674,2.46c.572,1.522,2.448.866,2.348-.1l-.03-.282c-.032-.314-.329-.68-.638-.648-.375.039-.617.249-.577.631a2.411,2.411,0,0,0,.2.551c-.259.005-.583-.112-.609-.365l-.044-.424c-.064-.611.847-1.159,1.514-1.228.8-.083,1.433.739,1.518,1.555.21,2.022-2.13,3.148-4.219,3.365-.894.094-3.552-.065-3.9-.451a1.445,1.445,0,0,0,.808-2.27c-.741-1.011-2.271-.812-2.188-.013l.03.282c.03.292.3.611.56.585l.282-.03c.357-.037.249-.525.585-.56.417-.044.739,1.208-.5,1.337l-.423.044c-2.666.277-6.248-3.919-9.722-3.558l-.989.1a6.042,6.042,0,0,0-4.3,3.173c-.627,1.19-1.592,3.864-3.235,4.035l-.353.036a1.877,1.877,0,0,1-1.934-1.441l-.022-.211a1.559,1.559,0,0,1,1.124-1.545l.071-.007a.806.806,0,0,1,.991.611l-.062.215c-.386-.06-.33-.389-.807-.339a.577.577,0,0,0-.436.616l.007.071a.912.912,0,0,0,.929.689l.212-.022a1.184,1.184,0,0,0,.871-1.233l-.03-.283c-.069-.663-1.032-1.106-1.749-1.031Zm4,2.726a27.087,27.087,0,0,0,1.3-2.758A6.293,6.293,0,0,1,74.08,30.5a12.59,12.59,0,0,1,1.17-.926l.089.051a6.2,6.2,0,0,0-1.745,2.42c-.246.467-.444.844-.717,1.293a4.184,4.184,0,0,1-.437.615,4.857,4.857,0,0,1-.463.53Z" transform="translate(-11.423 -0.334)"/><path class="cls-5" d="M22.958,51.6l-.128.165-.09.1-.183.3a1.4,1.4,0,0,0-.1.207l-.074.16-.047.225,0,.066.5.483-.573.545-.546-.517.01-.17a.521.521,0,0,1,.037-.178.527.527,0,0,1,.076-.226l.075-.188A1.1,1.1,0,0,0,22,52.422l.132-.254.33-.545.178-.254.3.151-.019.048Z" transform="translate(-11.423 -0.334)"/><path class="cls-5" d="M25.121,51.6l-.127.165-.09.1-.184.3a1.633,1.633,0,0,0-.1.207l-.074.16-.046.225,0,.066.5.483-.574.545-.545-.517.009-.17a.5.5,0,0,1,.038-.178A.527.527,0,0,1,24,52.761l.075-.188a1.192,1.192,0,0,0,.085-.151l.132-.254.329-.545.179-.254.3.151-.019.048Z" transform="translate(-11.423 -0.334)"/><path class="cls-5" d="M28.138,54.219h0a2.576,2.576,0,0,1-.07.591,1.724,1.724,0,0,1-.212.525,1.388,1.388,0,0,1-.282.394,1.794,1.794,0,0,1-.358.3l.17.272.207.31.188.272.291.366-.432.262-.217-.338-.2-.358-.113-.244-.188-.395-.188.112a1.53,1.53,0,0,1-.273.047h-.17a1.147,1.147,0,0,1-.225-.094.8.8,0,0,1-.292-.263,1.492,1.492,0,0,1-.047-.263.511.511,0,0,1,.188-.405.85.85,0,0,1,.2-.113l.244-.037a.78.78,0,0,1,.574.235L27.1,55.3a1.806,1.806,0,0,0,.32-.331.773.773,0,0,0,.066-.1l.056-.16a2.162,2.162,0,0,1-1.157-.368,1.147,1.147,0,0,1-.583-1.019.748.748,0,0,1,.278-.619,1.184,1.184,0,0,1,.757-.221,1.158,1.158,0,0,1,.781.274A1.838,1.838,0,0,1,28.138,54.219Zm-.47-.313a1.344,1.344,0,0,0-.151-.673.654.654,0,0,0-.244-.246A.905.905,0,0,0,26.9,52.9a.465.465,0,0,0-.2.038l-.179.142-.075.076a1.026,1.026,0,0,1-.057.1c-.006.044-.012.082-.018.113a.368.368,0,0,0-.01.076.7.7,0,0,0,.155.45,1.176,1.176,0,0,0,.476.327l.272.075.339.048a.4.4,0,0,0,.019-.048l.028-.2Zm.922-.938h-.047v.047h-.358l-.244-.536h.649Z" transform="translate(-11.423 -0.334)"/><path class="cls-5" d="M30.255,52.968h-.047v.047h-.734v4.543l-.583-.432V53.015h-.574v-.536h1.938Z" transform="translate(-11.423 -0.334)"/><path class="cls-5" d="M30.264,58.349a1.169,1.169,0,0,1-.451.95,1.639,1.639,0,0,1-1.063.367,1.5,1.5,0,0,1-.7-.2,3.918,3.918,0,0,1-.776-.564,6.806,6.806,0,0,1-.518-.518,1.415,1.415,0,0,1-.235-.329l.376-.4c0,.3.233.652.7,1.053a1.873,1.873,0,0,0,.509.31,1.312,1.312,0,0,0,.526.113,1.145,1.145,0,0,0,.414-.066,1.784,1.784,0,0,0,.414-.216.95.95,0,0,0,.282-.32.711.711,0,0,0,.094-.329l-.028-.254a.314.314,0,0,0-.094-.16l-.15-.1a.854.854,0,0,0-.217-.019.6.6,0,0,0-.442.254l-.15.179-.057.206-.517-.376.131-.244.094-.16a1.276,1.276,0,0,1,.311-.259.788.788,0,0,1,.4-.1,1.171,1.171,0,0,1,.828.348,2.728,2.728,0,0,1,.235.386A1.218,1.218,0,0,1,30.264,58.349Z" transform="translate(-11.423 -0.334)"/><path class="cls-5" d="M35.664,52.968h-.047v.047h-.979V54.1H33.114a.371.371,0,0,0-.112.037l-.113.1a.784.784,0,0,0-.132.224l-.038.309a.58.58,0,0,0,.056.261.431.431,0,0,0,.167.244,1.143,1.143,0,0,0,.584.289H33.7a.73.73,0,0,0,.222-.047L34,55.5l.056-.019-.042-.131L34,55.141a.751.751,0,0,1,.018-.188l.095-.151a.3.3,0,0,1,.15-.113l.207-.037c.27,0,.426.112.47.338l.038.207-.028.235a1.387,1.387,0,0,1-.085.2l-.132.179-.131.084.884,1.44-.593.056-.47-1.119-.132.15c-.018.019-.066.063-.141.132l-.254.226a2.32,2.32,0,0,1-.7.423,1.879,1.879,0,0,1-.687.132,1.113,1.113,0,0,1-.526-.179l-.245-.141c-.326-.2-.508-.4-.546-.6a.634.634,0,0,1,.019-.179l.066-.188.075-.122a.776.776,0,0,1-.169-.057,3.035,3.035,0,0,1-.367-.207,2.811,2.811,0,0,1-.433-.348.636.636,0,0,1-.141-.385.73.73,0,0,1,.264-.612.811.811,0,0,1,.536-.188,1.081,1.081,0,0,1,.31.042.754.754,0,0,1,.259.141.663.663,0,0,1,.183.25.541.541,0,0,1,.066.291q0,.227-.15.273l-.122.038-.1.028-.386-.282.188.009a.282.282,0,0,0,.142-.094l.037-.188-.028-.047a.207.207,0,0,0-.077-.038l-.133-.028h-.162a.3.3,0,0,0-.162.056l-.114.121-.048.121-.01.141q-.018.241.369.5a1.623,1.623,0,0,0,.265.159,1.051,1.051,0,0,0,.208.047l.227-.113.142-.057.16-.047.454.424a1.367,1.367,0,0,0-.395.037,1.244,1.244,0,0,0-.225.113.65.65,0,0,0-.17.188.532.532,0,0,0-.037.2.512.512,0,0,0,.047.2.77.77,0,0,0,.367.273l.254.038.141-.01.17-.028.179-.056.207-.075a2.463,2.463,0,0,0,.537-.309c.043-.031.113-.088.207-.169l.139-.124.075-.085h-.13a1.536,1.536,0,0,1-1.425-.822,1.621,1.621,0,0,1-.185-.6l-.01-.217a1.172,1.172,0,0,1,.057-.4.738.738,0,0,1,.421-.444,1.67,1.67,0,0,1,.243-.037h1.029v-.527H30.076v-.536h5.588Z" transform="translate(-11.423 -0.334)"/><path class="cls-5" d="M39.577,52.968H39.53v.047h-.725v4.534l-.583-.386V54.388H36.677a.514.514,0,0,0-.187.047l-.14.132a.675.675,0,0,0-.094.188l-.028.235a1.808,1.808,0,0,0,.132.659,2.425,2.425,0,0,0,.442.724l.235.264q.095.1.4.376l-.413.2a.552.552,0,0,1-.292-.245l-.414-.622a4.491,4.491,0,0,1-.461-.873,2.045,2.045,0,0,1-.15-.7,1.1,1.1,0,0,1,.1-.509.5.5,0,0,1,.093-.151l.113-.141.131-.1.122-.066.122-.019h1.827v-.762H35.457v-.536h4.12Z" transform="translate(-11.423 -0.334)"/><path class="cls-5" d="M41.232,52.968h-.047v.047h-.733v4.543l-.584-.432V53.015H39.3v-.536h1.937Z" transform="translate(-11.423 -0.334)"/><path class="cls-5" d="M49.388,52.968h-.047v.047H47.309v1.373l.226-.131a1.121,1.121,0,0,1,.273-.123l.254-.047a.78.78,0,0,1,.414.1,1.086,1.086,0,0,1,.564.7,1.675,1.675,0,0,1,.066.471,1.959,1.959,0,0,1-.113.705c-.031.069-.072.16-.122.273a1.328,1.328,0,0,1-.593.715l-.461-.489a.324.324,0,0,0,.24-.09,2.67,2.67,0,0,0,.268-.352,2.5,2.5,0,0,0,.273-.537,1.437,1.437,0,0,0,.1-.508l-.028-.178a.362.362,0,0,0-.2-.24.769.769,0,0,0-.24-.042.9.9,0,0,0-.263.051,1.144,1.144,0,0,0-.348.2l-.141.113-.17.132v2.436l-.583-.432V55.592l-.123.076-.142.066-.359.15-.264.038a1.162,1.162,0,0,1-.463-.113,1.323,1.323,0,0,1-.624-.665,1.416,1.416,0,0,1-.076-.459.893.893,0,0,1,.2-.581,1.347,1.347,0,0,1,.16-.168,1.583,1.583,0,0,1,.574-.263.791.791,0,0,1,.235-.019h.15l.188.029.273.592h-.188l-.141-.028h-.1a1.052,1.052,0,0,0-.357.047.955.955,0,0,0-.4.179.435.435,0,0,0-.112.122.785.785,0,0,0-.057.273.45.45,0,0,0,.218.442l.17.057.227.018a.781.781,0,0,0,.274-.056,4.883,4.883,0,0,0,.464-.207l.085-.056.2-.132V53.015H44.459v-.536h4.929Z" transform="translate(-11.423 -0.334)"/><path class="cls-5" d="M51.063,52.968h-.048v.047h-.733v4.543l-.583-.432V53.015h-.574v-.536h1.938Z" transform="translate(-11.423 -0.334)"/><path class="cls-5" d="M58.052,52.968h-.047v.047h-.621v1.712a.853.853,0,0,1-.033.249,1.121,1.121,0,0,1-.136.268c-.019.025-.047.066-.085.123a.832.832,0,0,1-.1.1.393.393,0,0,1-.207.085l-.507-.508.159-.01.085-.047.038-.028.047-.037.047-.057.038-.122.018-.076V53.015H55.258v2.429l2.49,1.526.1.093.066.094a.257.257,0,0,1,.048.131l.019.113a.588.588,0,0,1-.151.4.415.415,0,0,1-.179.14.574.574,0,0,1-.225.076l-.443-.49.151-.085.066-.028.131-.112c.013-.007.025-.035.038-.085l-.047-.038-.056-.047-.066-.066-2.55-1.505V53.015H54.3v-.536h3.754Z" transform="translate(-11.423 -0.334)"/><path class="cls-5" d="M62.9,52.968H62.85v.047H60.818v1.373l.225-.131a1.121,1.121,0,0,1,.273-.123l.254-.047a.78.78,0,0,1,.414.1,1.086,1.086,0,0,1,.564.7,1.675,1.675,0,0,1,.066.471,1.937,1.937,0,0,1-.113.705c-.031.069-.072.16-.122.273a1.324,1.324,0,0,1-.593.715l-.46-.489a.32.32,0,0,0,.239-.09,2.67,2.67,0,0,0,.268-.352,2.5,2.5,0,0,0,.273-.537,1.44,1.44,0,0,0,.1-.508l-.028-.178a.365.365,0,0,0-.2-.24.759.759,0,0,0-.24-.042.906.906,0,0,0-.263.051,1.144,1.144,0,0,0-.348.2l-.141.113-.169.132v2.436l-.584-.432V55.592l-.123.076-.141.066-.359.15-.265.038a1.162,1.162,0,0,1-.463-.113,1.327,1.327,0,0,1-.624-.665,1.442,1.442,0,0,1-.075-.459.893.893,0,0,1,.2-.581,1.424,1.424,0,0,1,.16-.168,1.591,1.591,0,0,1,.574-.263.793.793,0,0,1,.235-.019H59.5l.188.029.272.592h-.188l-.141-.028h-.1a1.058,1.058,0,0,0-.358.047.952.952,0,0,0-.4.179.437.437,0,0,0-.113.122.782.782,0,0,0-.056.273.449.449,0,0,0,.217.442l.17.057.227.018a.785.785,0,0,0,.275-.056q.112-.038.464-.207l.084-.056.2-.132V53.015H57.967v-.536H62.9Z" transform="translate(-11.423 -0.334)"/><path class="cls-5" d="M69.9,52.968h-.047v.047h-.837V54.1H67.346l-.1.028-.084.075-.047.1-.019.131.009.151.047.131c.038.057.06.088.066.094l.075.038.424-.132a2.808,2.808,0,0,1,.508-.047q.9,0,1.147.537a1.074,1.074,0,0,1,.1.451.826.826,0,0,1-.5.7l-.207.095-.282.094-.508-.458a2.13,2.13,0,0,0,.377-.076l.206-.077c.314-.114.471-.286.471-.514a.237.237,0,0,0-.188-.258l-.273-.047h-.395a1.544,1.544,0,0,0-.546.084.8.8,0,0,0-.442.32.71.71,0,0,0-.066.282,1.375,1.375,0,0,0,.122.565,1.92,1.92,0,0,0,1.044.809,2.05,2.05,0,0,0,.7.122l-.377.282a.573.573,0,0,1-.206-.038l-.33-.122-.207-.085a3.178,3.178,0,0,1-.752-.5,1.788,1.788,0,0,1-.41-.566,1.5,1.5,0,0,1-.136-.608.573.573,0,0,1,.052-.245,1.453,1.453,0,0,1,.174-.274l.085-.085.112-.085-.084-.132-.085-.141-.151-.368-.037-.179a.767.767,0,0,1-.01-.151.7.7,0,0,1,.019-.179l.075-.123.142-.075.207-.019h1.411v-.583h-2.3v-.536H69.9Z" transform="translate(-11.423 -0.334)"/><path class="cls-5" d="M71.5,52.968h-.048v.047h-.63v4.543l-.583-.432V53.015h-.489v-.536h.64a1.623,1.623,0,0,0-.085-.273,3.078,3.078,0,0,0-.282-.5q-.451-.685-.932-.686a.643.643,0,0,0-.235.047.656.656,0,0,0-.263.338,1.474,1.474,0,0,0-.056.32l.028.245.075.225a.751.751,0,0,0,.131.179,1.369,1.369,0,0,0,.264.207h-.395a.379.379,0,0,1-.151-.123l-.188-.255a1.547,1.547,0,0,1-.216-.392,1.005,1.005,0,0,1-.01-.742,1.408,1.408,0,0,1,.179-.3.863.863,0,0,1,.3-.208.942.942,0,0,1,.367-.076q.687,0,1.3.955.15.234.386.665a1.046,1.046,0,0,1,.132.375H71.5Z" transform="translate(-11.423 -0.334)"/><path class="cls-5" d="M78.991,52.968h-.047v.047H78.22v4.543l-.583-.442V54.7H76.32v.912c0,.119-.057.179-.169.179l-.076-.009A.406.406,0,0,1,76,55.724l-.339-.426-.207-.274-.112-.18-.255-.378.01-.095a.237.237,0,0,1,.15-.218.136.136,0,0,1,.056-.009h2.334V53.015H74.815v-.536h4.176Z" transform="translate(-11.423 -0.334)"/><path class="cls-5" d="M80.666,52.968h-.047v.047h-.734v4.543l-.583-.432V53.015h-.574v-.536h1.938Z" transform="translate(-11.423 -0.334)"/><path class="cls-5" d="M84.579,52.968h-.047v.047h-.64v4.543l-.564-.442V55.2H81.87v.376c0,.151-.059.233-.177.245a.931.931,0,0,1-.616-.37,1.723,1.723,0,0,1-.243-.341.468.468,0,0,1-.083-.247.2.2,0,0,1,.188-.218h.348V53.015H80.44v-.536h4.139Zm-1.2,1.721h-.047V53.015H81.87v1.627h1.5Z" transform="translate(-11.423 -0.334)"/><path class="cls-5" d="M86.291,52.055a.636.636,0,0,1-.037.2l-.085.244-.141.33a2.015,2.015,0,0,1-.141.263l-.226.367-.282.442-.348-.227.139-.179.083-.114.19-.28a1.672,1.672,0,0,0,.114-.235l.076-.207.037-.2v-.047l-.47-.489.545-.545.527.517-.028.038h.047Z" transform="translate(-11.423 -0.334)"/><path class="cls-5" d="M88.238,52.055a.636.636,0,0,1-.037.2l-.085.244-.141.33a2.015,2.015,0,0,1-.141.263l-.226.367-.282.442-.348-.227.139-.179.083-.114.19-.28a1.672,1.672,0,0,0,.114-.235l.076-.207.037-.2v-.047l-.47-.489.546-.545.527.517-.029.038h.047Z" transform="translate(-11.423 -0.334)"/></svg>